# Blender v2.74 (sub 0) OBJ File: 'structure.blend'
# www.blender.org
mtllib structure.mtl
o Cube
v -1.988462 0.000000 2.000000
v -1.988462 3.989481 2.000000
v -1.988462 0.000000 0.000000
v 0.500000 0.000000 2.000000
v 0.500000 3.989481 2.000000
v 0.500000 0.000000 0.000000
v -1.988462 3.989481 0.901192
v -1.988462 3.088289 0.000000
v 0.500000 3.088289 0.000000
v 0.500000 3.989481 0.901192
vn 0.000000 0.000000 -1.000000
vn 1.000000 0.000000 0.000000
vn 0.000000 0.000000 1.000000
vn 0.000000 -1.000000 0.000000
vn -1.000000 -0.000000 0.000000
vn 0.000000 0.707100 -0.707100
vn 0.000000 1.000000 0.000000
usemtl None
s off
f 8//1 9//1 6//1 3//1
f 9//2 10//2 5//2 4//2 6//2
f 5//3 2//3 1//3 4//3
f 1//4 3//4 6//4 4//4
f 2//5 7//5 8//5 3//5 1//5
f 7//6 10//6 9//6 8//6
f 5//7 10//7 7//7 2//7
