# Blender v2.74 (sub 0) OBJ File: 'structure.blend'
# www.blender.org
mtllib structure.mtl
o Cube_Cube.001
v 0.028039 0.000000 4.021657
v 0.028039 5.388030 4.021657
v 0.028039 0.000000 0.021657
v 4.028039 0.000000 4.021657
v 4.028039 5.388030 4.021657
v 4.028039 0.000000 0.021657
v 0.028039 5.388030 1.435871
v 0.028039 3.973817 0.021657
v 0.028039 5.339842 1.069845
v 0.028039 5.198562 0.728764
v 0.028039 4.973817 0.435871
v 0.028039 4.680923 0.211126
v 0.028039 4.339842 0.069845
v 4.028039 3.973817 0.021657
v 4.028039 5.388030 1.435871
v 4.028039 4.339842 0.069845
v 4.028039 4.680923 0.211126
v 4.028039 4.973817 0.435871
v 4.028039 5.198562 0.728764
v 4.028039 5.339842 1.069845
vn 0.000000 0.000000 -1.000000
vn 1.000000 0.000000 0.000000
vn 0.000000 0.000000 1.000000
vn 0.000000 -1.000000 0.000000
vn -1.000000 -0.000000 0.000000
vn 0.000000 0.991400 -0.130500
vn 0.000000 0.923900 -0.382700
vn 0.000000 0.793400 -0.608800
vn 0.000000 0.608800 -0.793400
vn 0.000000 0.382700 -0.923900
vn 0.000000 0.130500 -0.991400
vn 0.000000 1.000000 0.000000
usemtl None
s off
f 8//1 14//1 6//1 3//1
f 14//2 16//2 17//2 18//2 19//2 20//2 15//2 5//2 4//2 6//2
f 5//3 2//3 1//3 4//3
f 1//4 3//4 6//4 4//4
f 2//5 7//5 9//5 10//5 11//5 12//5 13//5 8//5 3//5 1//5
f 7//6 15//6 20//6 9//6
f 9//7 20//7 19//7 10//7
f 10//8 19//8 18//8 11//8
f 11//9 18//9 17//9 12//9
f 12//10 17//10 16//10 13//10
f 13//11 16//11 14//11 8//11
f 5//12 15//12 7//12 2//12
