# Blender v2.74 (sub 0) OBJ File: 'wall45.blend'
# www.blender.org
mtllib wall45.mtl
o Cube_Cube.001
v -0.000442 0.000615 3.005559
v -2.673153 0.000568 -0.000162
v -0.000442 0.000615 2.342162
v -2.009842 0.000568 -0.000162
v -0.000442 0.663967 2.939265
v -0.000442 0.597460 3.005559
v -0.000442 0.655186 2.972397
v -0.000442 0.630812 2.996801
v -2.673153 0.597627 -0.000162
v -2.606893 0.664023 -0.000162
v -2.664243 0.630790 -0.000162
v -2.640106 0.655034 -0.000162
v -0.000442 0.597460 2.342165
v -0.000442 0.663967 2.408512
v -0.000442 0.630812 2.351024
v -0.000442 0.655186 2.375373
v -2.076019 0.664023 -0.000162
v -2.009842 0.597627 -0.000162
v -2.043136 0.655034 -0.000162
v -2.018505 0.630790 -0.000162
vn 0.000000 1.000000 0.000000
vn 0.759000 0.000000 -0.651100
vn -0.747300 0.000000 0.664500
vn 0.000000 -1.000000 0.000000
vn 0.000000 0.000000 -1.000000
vn 1.000000 0.000000 0.000000
vn -0.265300 0.935000 0.235400
vn -0.611100 0.576000 0.542900
vn -0.734500 0.184400 0.653000
vn 0.270300 0.934200 -0.232700
vn 0.618300 0.579300 -0.531200
vn 0.746200 0.182500 -0.640300
usemtl Black
s off
f 14//1 17//1 10//1 5//1
f 18//2 13//2 3//2 4//2
f 6//3 9//3 2//3 1//3
f 1//4 2//4 4//4 3//4
f 9//5 11//5 12//5 10//5 17//5 19//5 20//5 18//5 4//5 2//5
f 13//6 15//6 16//6 14//6 5//6 7//6 8//6 6//6 1//6 3//6
usemtl Blue
f 5//7 10//7 12//7 7//7
f 7//8 12//8 11//8 8//8
f 8//9 11//9 9//9 6//9
f 17//10 14//10 16//10 19//10
f 19//11 16//11 15//11 20//11
f 20//12 15//12 13//12 18//12
